<svg width="48" height="48" viewBox="0 0 128 128" fill="none" xmlns="http://www.w3.org/2000/svg">
<path d="M107.269 94.6879H100.269C100.269 95.1893 100.211 94.9507 100.39 94.3768C100.59 93.7342 101.324 91.991 103.411 90.9619C105.327 90.0166 106.972 90.3952 107.314 90.4817C107.704 90.5805 107.839 90.6799 107.458 90.4923C107.155 90.343 105.246 89.3027 103.761 88.6797C101.998 87.94 99.6031 87.1777 96.7825 87.1777V94.1777V101.178C97.8044 101.178 98.4288 101.651 101.272 103.051C101.812 103.317 102.77 103.773 103.877 104.053C104.936 104.322 107.192 104.707 109.604 103.517C112.186 102.244 113.301 100.004 113.758 98.5368C114.193 97.138 114.269 95.7458 114.269 94.6879H107.269ZM96.7825 94.1777V101.178C99.4063 101.178 101.658 100.576 103.333 99.9984C104.168 99.7106 104.919 99.407 105.487 99.1753C106.129 98.9131 106.439 98.7851 106.701 98.6923C106.996 98.5879 106.738 98.7126 106.199 98.7593C105.585 98.8123 104.085 98.8037 102.547 97.7484C101.023 96.7027 100.502 95.342 100.354 94.834C100.218 94.369 100.269 94.2161 100.269 94.6879H107.269H114.269C114.269 93.6002 114.187 92.2618 113.794 90.9162C113.389 89.5275 112.488 87.5909 110.468 86.205C108.434 84.8094 106.323 84.6962 104.992 84.8114C103.735 84.9201 102.654 85.2734 102.028 85.4951C98.8222 86.6303 98.2997 87.1777 96.7825 87.1777V94.1777Z" fill="#2AAF47"/>
<path d="M93.7268 68.5898L93.7085 75.5898L93.7507 61.5898L93.7268 68.5898ZM74.3072 68.5391L74.322 61.5391L74.289 75.539L74.3072 68.5391ZM86.3078 68.5644L86.3317 61.5645L86.3226 61.5644L86.3078 68.5644ZM93.7268 68.5898L93.745 61.5898L74.3255 61.5391L74.3072 68.5391L74.289 75.539L93.7085 75.5898L93.7268 68.5898ZM74.3072 68.5391L74.2924 75.539L86.293 75.5644L86.3078 68.5644L86.3226 61.5644L74.322 61.5391L74.3072 68.5391ZM86.3078 68.5644L86.2839 75.5644L93.7028 75.5897L93.7268 68.5898L93.7507 61.5898L86.3317 61.5645L86.3078 68.5644Z" fill="#2AAF47"/>
<path d="M23.2936 93.5434L23.2331 100.543V100.543L23.2936 93.5434ZM98.2479 101.191C102.114 101.224 105.275 98.1171 105.308 94.2513C105.341 90.3854 102.235 87.2245 98.3688 87.1911L98.3084 94.1909L98.2479 101.191ZM13.1709 87.6938L7.13634 91.2413L7.13634 91.2413L13.1709 87.6938ZM14.1758 72.8644L8.67508 68.5352L8.67508 68.5352L14.1758 72.8644ZM14.2887 72.7209L19.7895 77.0501L19.7895 77.0501L14.2887 72.7209ZM23.9029 68.104L23.8425 75.1038L23.8472 75.1038L23.9029 68.104ZM80.0701 68.5512L80.0144 75.551L80.0324 75.5512L80.0504 75.5512L80.0701 68.5512ZM93.7268 68.5898L93.707 75.5898L93.7169 75.5898H93.7268V68.5898ZM106.003 75.5898C109.869 75.5898 113.003 72.4558 113.003 68.5898C113.003 64.7238 109.869 61.5898 106.003 61.5898V68.5898V75.5898ZM23.2936 93.5434L23.2331 100.543L98.2479 101.191L98.3084 94.1909L98.3688 87.1911L23.354 86.5437L23.2936 93.5434ZM23.2936 93.5434L23.354 86.5437C21.6459 86.5289 20.071 85.6188 19.2054 84.1463L13.1709 87.6938L7.13634 91.2413C10.495 96.9547 16.6059 100.486 23.2331 100.543L23.2936 93.5434ZM14.1758 72.8644L8.67508 68.5352C3.5359 75.0651 2.92514 84.0778 7.13634 91.2413L13.1709 87.6938L19.2054 84.1463C17.9159 81.9528 18.1029 79.1931 19.6765 77.1936L14.1758 72.8644ZM14.2887 72.7209L8.78802 68.3917L8.67508 68.5352L14.1758 72.8644L19.6765 77.1936L19.7895 77.0501L14.2887 72.7209ZM23.9029 68.104L23.9633 61.1043C18.0495 61.0533 12.4456 63.7443 8.78801 68.3917L14.2887 72.7209L19.7895 77.0501C20.7663 75.8089 22.263 75.0902 23.8425 75.1038L23.9029 68.104ZM80.0701 68.5512L80.1259 61.5515L23.9587 61.1043L23.9029 68.104L23.8472 75.1038L80.0144 75.551L80.0701 68.5512ZM93.7268 68.5898L93.7465 61.5898L80.0899 61.5513L80.0701 68.5512L80.0504 75.5512L93.707 75.5898L93.7268 68.5898ZM106.003 68.5898V61.5898H93.7268V68.5898V75.5898H106.003V68.5898Z" fill="#2AAF47"/>
<path d="M44.3402 30.9515V25.9515C42.326 25.9515 40.5739 26.4702 39.2804 26.9575C38.6259 27.2041 38.0314 27.4656 37.5585 27.6776C37.0324 27.9135 36.7381 28.0499 36.4545 28.1661C36.1598 28.2869 36.1978 28.2478 36.4138 28.2082C36.6068 28.1728 37.5481 28.019 38.6754 28.5528C39.9615 29.1619 40.5426 30.199 40.7489 30.775C40.9142 31.2365 40.8696 31.4547 40.8696 31.1252H35.8696H30.8696C30.8696 31.9653 30.9435 33.0552 31.3345 34.1468C31.7665 35.3529 32.6805 36.7784 34.3952 37.5905C35.9511 38.3274 37.4169 38.1911 38.2187 38.044C39.0437 37.8926 39.775 37.6125 40.2467 37.4192C40.7296 37.2213 41.2748 36.9705 41.6499 36.8023C42.0784 36.6102 42.4468 36.4507 42.8057 36.3155C43.5391 36.0392 44.0153 35.9515 44.3402 35.9515V30.9515ZM35.8696 31.1252H40.8696C40.8696 30.8062 40.9116 30.9934 40.7644 31.4165C40.5847 31.9335 40.082 32.8806 38.9435 33.5063C37.9046 34.0773 36.9937 34.0107 36.7371 33.9807C36.4843 33.9513 36.4151 33.9031 36.6856 33.9987C36.9386 34.088 37.2299 34.2067 37.7345 34.4102C38.1911 34.5943 38.7758 34.828 39.4142 35.048C40.6813 35.4846 42.3886 35.9515 44.3402 35.9515V30.9515V25.9515C43.9527 25.9515 43.4317 25.8553 42.672 25.5935C42.2969 25.4643 41.9186 25.315 41.474 25.1357C41.0773 24.9757 40.5291 24.7507 40.0156 24.5694C39.5196 24.3942 38.7572 24.1486 37.8955 24.0481C37.03 23.9471 35.5946 23.936 34.127 24.7426C30.9822 26.4711 30.8696 29.9267 30.8696 31.1252H35.8696Z" fill="#AF2A2A"/>
<path d="M44.9165 25.9515C42.1551 25.9515 39.9165 28.19 39.9165 30.9515C39.9165 33.7129 42.1551 35.9515 44.9165 35.9515V30.9515V25.9515ZM106.81 35.1983L102.615 37.9198V37.9198L106.81 35.1983ZM106.899 45.2029L102.657 42.5569L102.657 42.5569L106.899 45.2029ZM106.831 45.3121L111.074 47.9581L111.074 47.958L106.831 45.3121ZM98.8069 49.7947L98.8356 54.7947H98.8356L98.8069 49.7947ZM69.7148 49.9619L69.6904 54.9619L69.717 54.962L69.7435 54.9618L69.7148 49.9619ZM29.3403 44.7646C26.5789 44.7511 24.3294 46.9788 24.3159 49.7402C24.3024 52.5015 26.53 54.751 29.2914 54.7645L29.3158 49.7646L29.3403 44.7646ZM98.9919 30.9515V25.9515H44.9165V30.9515V35.9515H98.9919V30.9515ZM106.81 35.1983L111.004 32.4768C108.364 28.4074 103.843 25.9515 98.9919 25.9515V30.9515V35.9515C100.455 35.9515 101.819 36.6923 102.615 37.9198L106.81 35.1983ZM106.81 35.1983L102.615 37.9198C103.528 39.3264 103.544 41.1341 102.657 42.5569L106.899 45.2029L111.142 47.8489C114.084 43.1324 114.03 37.1398 111.004 32.4768L106.81 35.1983ZM106.831 45.3121L111.074 47.958L111.142 47.8488L106.899 45.2029L102.657 42.5569L102.589 42.6661L106.831 45.3121ZM106.831 45.3121L102.589 42.666C101.768 43.9824 100.329 44.7859 98.7782 44.7948L98.8069 49.7947L98.8356 54.7947C103.818 54.766 108.437 52.1854 111.074 47.9581L106.831 45.3121ZM69.7148 49.9619L69.7435 54.9618L98.8356 54.7947L98.8069 49.7947L98.7782 44.7948L69.6861 44.962L69.7148 49.9619ZM29.3158 49.7646L29.2914 54.7645L69.6904 54.9619L69.7148 49.9619L69.7392 44.962L29.3403 44.7646L29.3158 49.7646Z" fill="#AF2A2A"/>
<g opacity="0.09">
<mask id="path-6-outside-1_1_2" maskUnits="userSpaceOnUse" x="42" y="63.2742" width="43" height="11" fill="black">
<rect fill="white" x="42" y="63.2742" width="43" height="11"/>
<path d="M48.751 72.2742L48.3994 70.9363H46.0801L45.7188 72.2742H43.5996L45.9287 65.1062H48.502L50.8604 72.2742H48.751ZM47.999 69.3542L47.6914 68.1824C47.6589 68.0554 47.6117 67.8747 47.5498 67.6404C47.488 67.4027 47.4261 67.1586 47.3643 66.9079C47.3057 66.654 47.2601 66.4457 47.2275 66.2829C47.1982 66.4457 47.1559 66.6475 47.1006 66.8884C47.0485 67.126 46.9932 67.362 46.9346 67.5964C46.8792 67.8308 46.8304 68.0261 46.7881 68.1824L46.4805 69.3542H47.999ZM52.9336 72.2742H51.0244V64.6765H52.9336V72.2742ZM56.4668 70.863C56.6393 70.863 56.7972 70.8451 56.9404 70.8093C57.0837 70.7735 57.2334 70.7279 57.3896 70.6726V72.0642C57.1813 72.1553 56.96 72.2286 56.7256 72.2839C56.4945 72.3425 56.1982 72.3718 55.8369 72.3718C55.4788 72.3718 55.1631 72.3165 54.8896 72.2058C54.6162 72.0919 54.403 71.8965 54.25 71.6199C54.1003 71.3399 54.0254 70.9509 54.0254 70.4529V68.1726H53.3564V67.3962L54.2061 66.7956L54.6992 65.6335H55.9492V66.7419H57.3066V68.1726H55.9492V70.3259C55.9492 70.5049 55.9948 70.64 56.0859 70.7312C56.1771 70.8191 56.304 70.863 56.4668 70.863ZM62.9939 66.6443C63.0981 66.6443 63.2072 66.6524 63.3211 66.6687C63.435 66.6817 63.5197 66.6931 63.575 66.7029L63.4041 68.5046C63.3423 68.4883 63.2625 68.4753 63.1648 68.4656C63.0672 68.4525 62.9305 68.446 62.7547 68.446C62.6342 68.446 62.5057 68.4574 62.3689 68.4802C62.2322 68.503 62.102 68.5518 61.9783 68.6267C61.8579 68.6983 61.7586 68.809 61.6805 68.9587C61.6023 69.1052 61.5633 69.3038 61.5633 69.5544V72.2742H59.6541V66.7419H61.075L61.3729 67.6257H61.4656C61.5665 67.4434 61.6951 67.279 61.8514 67.1325C62.0109 66.9828 62.1883 66.864 62.3836 66.7761C62.5822 66.6882 62.7856 66.6443 62.9939 66.6443ZM66.3416 66.6443C66.8787 66.6443 67.3426 66.7387 67.7332 66.9275C68.1238 67.113 68.4249 67.393 68.6365 67.7673C68.8481 68.1417 68.9539 68.6104 68.9539 69.1736V70.0232H65.5408C65.5571 70.3129 65.6645 70.5505 65.8631 70.7361C66.0649 70.9216 66.3611 71.0144 66.7518 71.0144C67.0968 71.0144 67.4126 70.9802 67.699 70.9118C67.9887 70.8435 68.2866 70.7377 68.5926 70.5945V71.9665C68.3257 72.1065 68.0343 72.209 67.7186 72.2742C67.4028 72.3393 67.004 72.3718 66.5223 72.3718C65.9656 72.3718 65.4676 72.2725 65.0281 72.074C64.5887 71.8754 64.242 71.5678 63.9881 71.1511C63.7374 70.7344 63.6121 70.199 63.6121 69.5447C63.6121 68.8806 63.726 68.3353 63.9539 67.9089C64.1818 67.4792 64.5008 67.1618 64.9109 66.9568C65.3211 66.7484 65.798 66.6443 66.3416 66.6443ZM66.41 67.9431C66.1854 67.9431 65.9966 68.0147 65.8436 68.1579C65.6938 68.2979 65.6059 68.5193 65.5799 68.822H67.2205C67.2173 68.6592 67.1847 68.5111 67.1229 68.3777C67.061 68.2442 66.9699 68.1384 66.8494 68.0603C66.7322 67.9822 66.5857 67.9431 66.41 67.9431ZM76.8115 66.7419V72.2742H75.3711L75.1318 71.5857H75.0195C74.9056 71.7712 74.7607 71.9226 74.585 72.0398C74.4124 72.1537 74.2204 72.2367 74.0088 72.2888C73.7972 72.3441 73.5775 72.3718 73.3496 72.3718C72.9883 72.3718 72.6611 72.3018 72.3682 72.1618C72.0785 72.0219 71.8473 71.8021 71.6748 71.5027C71.5055 71.2032 71.4209 70.8174 71.4209 70.3454V66.7419H73.3301V69.7644C73.3301 70.1225 73.3805 70.3959 73.4814 70.5847C73.5856 70.7702 73.7549 70.863 73.9893 70.863C74.2301 70.863 74.4157 70.7979 74.5459 70.6677C74.6794 70.5375 74.7721 70.3454 74.8242 70.0915C74.8763 69.8376 74.9023 69.5284 74.9023 69.1638V66.7419H76.8115ZM80.9697 66.6443C81.0739 66.6443 81.1829 66.6524 81.2969 66.6687C81.4108 66.6817 81.4954 66.6931 81.5508 66.7029L81.3799 68.5046C81.318 68.4883 81.2383 68.4753 81.1406 68.4656C81.043 68.4525 80.9062 68.446 80.7305 68.446C80.61 68.446 80.4814 68.4574 80.3447 68.4802C80.208 68.503 80.0778 68.5518 79.9541 68.6267C79.8337 68.6983 79.7344 68.809 79.6562 68.9587C79.5781 69.1052 79.5391 69.3038 79.5391 69.5544V72.2742H77.6299V66.7419H79.0508L79.3486 67.6257H79.4414C79.5423 67.4434 79.6709 67.279 79.8271 67.1325C79.9867 66.9828 80.1641 66.864 80.3594 66.7761C80.5579 66.6882 80.7614 66.6443 80.9697 66.6443ZM83.7363 72.2742H81.8271V64.6765H83.7363V72.2742Z"/>
</mask>
<path d="M48.751 72.2742L47.7838 72.5283L47.9798 73.2742H48.751V72.2742ZM48.3994 70.9363L49.3666 70.6821L49.1706 69.9363H48.3994V70.9363ZM46.0801 70.9363V69.9363H45.3143L45.1147 70.6755L46.0801 70.9363ZM45.7188 72.2742V73.2742H46.4845L46.6842 72.5349L45.7188 72.2742ZM43.5996 72.2742L42.6486 71.9651L42.2232 73.2742H43.5996V72.2742ZM45.9287 65.1062V64.1062H45.2022L44.9777 64.7972L45.9287 65.1062ZM48.502 65.1062L49.4519 64.7936L49.2257 64.1062H48.502V65.1062ZM50.8604 72.2742V73.2742H52.2421L51.8103 71.9616L50.8604 72.2742ZM47.999 69.3542V70.3542H49.2954L48.9663 69.1003L47.999 69.3542ZM47.6914 68.1824L46.7227 68.4307L46.7242 68.4363L47.6914 68.1824ZM47.5498 67.6404L46.582 67.8922L46.5829 67.8955L47.5498 67.6404ZM47.3643 66.9079L46.3899 67.1328L46.3916 67.1402L46.3934 67.1475L47.3643 66.9079ZM47.2275 66.2829L48.2081 66.0868L46.2434 66.1058L47.2275 66.2829ZM47.1006 66.8884L46.1259 66.6645L46.1238 66.6743L47.1006 66.8884ZM46.9346 67.5964L45.9643 67.3539L45.9613 67.3666L46.9346 67.5964ZM46.7881 68.1824L45.8228 67.9209L45.8209 67.9285L46.7881 68.1824ZM46.4805 69.3542L45.5132 69.1003L45.1841 70.3542H46.4805V69.3542ZM48.751 72.2742L49.7181 72.02L49.3666 70.6821L48.3994 70.9363L47.4322 71.1904L47.7838 72.5283L48.751 72.2742ZM48.3994 70.9363V69.9363H46.0801V70.9363V71.9363H48.3994V70.9363ZM46.0801 70.9363L45.1147 70.6755L44.7533 72.0134L45.7188 72.2742L46.6842 72.5349L47.0455 71.197L46.0801 70.9363ZM45.7188 72.2742V71.2742H43.5996V72.2742V73.2742H45.7188V72.2742ZM43.5996 72.2742L44.5507 72.5832L46.8798 65.4152L45.9287 65.1062L44.9777 64.7972L42.6486 71.9651L43.5996 72.2742ZM45.9287 65.1062V66.1062H48.502V65.1062V64.1062H45.9287V65.1062ZM48.502 65.1062L47.552 65.4187L49.9104 72.5867L50.8604 72.2742L51.8103 71.9616L49.4519 64.7936L48.502 65.1062ZM50.8604 72.2742V71.2742H48.751V72.2742V73.2742H50.8604V72.2742ZM47.999 69.3542L48.9663 69.1003L48.6586 67.9285L47.6914 68.1824L46.7242 68.4363L47.0318 69.6081L47.999 69.3542ZM47.6914 68.1824L48.6601 67.934C48.6266 67.8036 48.5787 67.6203 48.5167 67.3852L47.5498 67.6404L46.5829 67.8955C46.6446 68.1292 46.6911 68.3072 46.7227 68.4307L47.6914 68.1824ZM47.5498 67.6404L48.5176 67.3885C48.4568 67.1552 48.396 66.9151 48.3351 66.6684L47.3643 66.9079L46.3934 67.1475C46.4562 67.4021 46.5191 67.6503 46.582 67.8922L47.5498 67.6404ZM47.3643 66.9079L48.3386 66.6831C48.2812 66.434 48.238 66.2362 48.2081 66.0868L47.2275 66.2829L46.247 66.4791C46.2822 66.6552 46.3302 66.874 46.3899 67.1328L47.3643 66.9079ZM47.2275 66.2829L46.2434 66.1058C46.2179 66.2473 46.1793 66.4324 46.126 66.6645L47.1006 66.8884L48.0752 67.1123C48.1325 66.8627 48.1786 66.6441 48.2117 66.4601L47.2275 66.2829ZM47.1006 66.8884L46.1238 66.6743C46.0738 66.9025 46.0206 67.129 45.9644 67.3539L46.9346 67.5964L47.9047 67.839C47.9657 67.5951 48.0232 67.3496 48.0774 67.1025L47.1006 66.8884ZM46.9346 67.5964L45.9613 67.3666C45.9074 67.595 45.8613 67.7789 45.8229 67.9209L46.7881 68.1824L47.7533 68.4438C47.7995 68.2733 47.851 68.0666 47.9078 67.8262L46.9346 67.5964ZM46.7881 68.1824L45.8209 67.9285L45.5132 69.1003L46.4805 69.3542L47.4477 69.6081L47.7553 68.4363L46.7881 68.1824ZM46.4805 69.3542V70.3542H47.999V69.3542V68.3542H46.4805V69.3542ZM52.9336 72.2742V73.2742H53.9336V72.2742H52.9336ZM51.0244 72.2742H50.0244V73.2742H51.0244V72.2742ZM51.0244 64.6765V63.6765H50.0244V64.6765H51.0244ZM52.9336 64.6765H53.9336V63.6765H52.9336V64.6765ZM52.9336 72.2742V71.2742H51.0244V72.2742V73.2742H52.9336V72.2742ZM51.0244 72.2742H52.0244V64.6765H51.0244H50.0244V72.2742H51.0244ZM51.0244 64.6765V65.6765H52.9336V64.6765V63.6765H51.0244V64.6765ZM52.9336 64.6765H51.9336V72.2742H52.9336H53.9336V64.6765H52.9336ZM57.3896 70.6726H58.3896V69.2576L57.0558 69.73L57.3896 70.6726ZM57.3896 72.0642L57.7905 72.9803L58.3896 72.7182V72.0642H57.3896ZM56.7256 72.2839L56.4958 71.3107L56.4878 71.3126L56.4798 71.3146L56.7256 72.2839ZM54.8896 72.2058L54.505 73.1289L54.5145 73.1327L54.8896 72.2058ZM54.25 71.6199L53.3681 72.0916L53.3749 72.1037L54.25 71.6199ZM54.0254 68.1726H55.0254V67.1726H54.0254V68.1726ZM53.3564 68.1726H52.3564V69.1726H53.3564V68.1726ZM53.3564 67.3962L52.7792 66.5796L52.3564 66.8785V67.3962H53.3564ZM54.2061 66.7956L54.7833 67.6122L55.0155 67.4481L55.1266 67.1863L54.2061 66.7956ZM54.6992 65.6335V64.6335H54.0373L53.7787 65.2429L54.6992 65.6335ZM55.9492 65.6335H56.9492V64.6335H55.9492V65.6335ZM55.9492 66.7419H54.9492V67.7419H55.9492V66.7419ZM57.3066 66.7419H58.3066V65.7419H57.3066V66.7419ZM57.3066 68.1726V69.1726H58.3066V68.1726H57.3066ZM55.9492 68.1726V67.1726H54.9492V68.1726H55.9492ZM56.0859 70.7312L55.3788 71.4383L55.3853 71.4447L55.3918 71.451L56.0859 70.7312ZM56.4668 70.863V71.863C56.7077 71.863 56.9484 71.8381 57.183 71.7794L56.9404 70.8093L56.6979 69.8392C56.646 69.8521 56.5709 69.863 56.4668 69.863V70.863ZM56.9404 70.8093L57.183 71.7794C57.3605 71.7351 57.5408 71.6799 57.7235 71.6152L57.3896 70.6726L57.0558 69.73C56.926 69.7759 56.8068 69.8119 56.6979 69.8392L56.9404 70.8093ZM57.3896 70.6726H56.3896V72.0642H57.3896H58.3896V70.6726H57.3896ZM57.3896 72.0642L56.9888 71.148C56.8388 71.2137 56.675 71.2684 56.4958 71.3107L56.7256 72.2839L56.9554 73.2572C57.2449 73.1888 57.5238 73.097 57.7905 72.9803L57.3896 72.0642ZM56.7256 72.2839L56.4798 71.3146C56.3589 71.3452 56.1532 71.3718 55.8369 71.3718V72.3718V73.3718C56.2432 73.3718 56.63 73.3398 56.9713 73.2533L56.7256 72.2839ZM55.8369 72.3718V71.3718C55.5807 71.3718 55.3965 71.3322 55.2648 71.2788L54.8896 72.2058L54.5145 73.1327C54.9296 73.3008 55.377 73.3718 55.8369 73.3718V72.3718ZM54.8896 72.2058L55.2743 71.2827C55.2238 71.2617 55.1768 71.2293 55.1251 71.136L54.25 71.6199L53.3749 72.1037C53.6292 72.5637 54.0086 72.922 54.505 73.1289L54.8896 72.2058ZM54.25 71.6199L55.1318 71.1482C55.0916 71.0731 55.0254 70.871 55.0254 70.4529H54.0254H53.0254C53.0254 71.0309 53.1089 71.6067 53.3682 72.0915L54.25 71.6199ZM54.0254 70.4529H55.0254V68.1726H54.0254H53.0254V70.4529H54.0254ZM54.0254 68.1726V67.1726H53.3564V68.1726V69.1726H54.0254V68.1726ZM53.3564 68.1726H54.3564V67.3962H53.3564H52.3564V68.1726H53.3564ZM53.3564 67.3962L53.9337 68.2128L54.7833 67.6122L54.2061 66.7956L53.6288 65.9791L52.7792 66.5796L53.3564 67.3962ZM54.2061 66.7956L55.1266 67.1863L55.6198 66.0242L54.6992 65.6335L53.7787 65.2429L53.2855 66.405L54.2061 66.7956ZM54.6992 65.6335V66.6335H55.9492V65.6335V64.6335H54.6992V65.6335ZM55.9492 65.6335H54.9492V66.7419H55.9492H56.9492V65.6335H55.9492ZM55.9492 66.7419V67.7419H57.3066V66.7419V65.7419H55.9492V66.7419ZM57.3066 66.7419H56.3066V68.1726H57.3066H58.3066V66.7419H57.3066ZM57.3066 68.1726V67.1726H55.9492V68.1726V69.1726H57.3066V68.1726ZM55.9492 68.1726H54.9492V70.3259H55.9492H56.9492V68.1726H55.9492ZM55.9492 70.3259H54.9492C54.9492 70.6652 55.0371 71.0965 55.3788 71.4383L56.0859 70.7312L56.793 70.0241C56.9525 70.1835 56.9492 70.3447 56.9492 70.3259H55.9492ZM56.0859 70.7312L55.3918 71.451C55.7182 71.7658 56.122 71.863 56.4668 71.863V70.863V69.863C56.474 69.863 56.5153 69.8639 56.5766 69.8851C56.6418 69.9076 56.7148 69.9484 56.7801 70.0113L56.0859 70.7312ZM63.3211 66.6687L63.1797 67.6586L63.1936 67.6606L63.2076 67.6622L63.3211 66.6687ZM63.575 66.7029L64.5705 66.7973L64.6577 65.8785L63.7488 65.7181L63.575 66.7029ZM63.4041 68.5046L63.1496 69.4717L64.2884 69.7714L64.3996 68.599L63.4041 68.5046ZM63.1648 68.4656L63.0327 69.4568L63.049 69.459L63.0653 69.4606L63.1648 68.4656ZM61.9783 68.6267L62.4894 69.4863L62.4961 69.4822L61.9783 68.6267ZM61.6805 68.9587L62.5629 69.4293L62.5671 69.4213L61.6805 68.9587ZM61.5633 72.2742V73.2742H62.5633V72.2742H61.5633ZM59.6541 72.2742H58.6541V73.2742H59.6541V72.2742ZM59.6541 66.7419V65.7419H58.6541V66.7419H59.6541ZM61.075 66.7419L62.0226 66.4226L61.7932 65.7419H61.075V66.7419ZM61.3729 67.6257L60.4252 67.9451L60.6546 68.6257H61.3729V67.6257ZM61.4656 67.6257V68.6257H62.055L62.3405 68.11L61.4656 67.6257ZM61.8514 67.1325L62.5353 67.8621L62.5358 67.8616L61.8514 67.1325ZM62.3836 66.7761L61.9788 65.8617L61.9732 65.8642L62.3836 66.7761ZM62.9939 66.6443V67.6443C63.0462 67.6443 63.1078 67.6484 63.1797 67.6586L63.3211 66.6687L63.4625 65.6787C63.3065 65.6565 63.15 65.6443 62.9939 65.6443V66.6443ZM63.3211 66.6687L63.2076 67.6622C63.3175 67.6748 63.3772 67.6834 63.4012 67.6876L63.575 66.7029L63.7488 65.7181C63.6621 65.7028 63.5526 65.6886 63.4346 65.6751L63.3211 66.6687ZM63.575 66.7029L62.5795 66.6084L62.4086 68.4102L63.4041 68.5046L64.3996 68.599L64.5705 66.7973L63.575 66.7029ZM63.4041 68.5046L63.6586 67.5375C63.5266 67.5028 63.3898 67.4831 63.2643 67.4705L63.1648 68.4656L63.0653 69.4606C63.0977 69.4638 63.1211 69.467 63.1368 69.4696C63.153 69.4722 63.1562 69.4734 63.1496 69.4717L63.4041 68.5046ZM63.1648 68.4656L63.297 67.4743C63.1343 67.4526 62.9462 67.446 62.7547 67.446V68.446V69.446C62.9148 69.446 63.0001 69.4524 63.0327 69.4568L63.1648 68.4656ZM62.7547 68.446V67.446C62.5717 67.446 62.3877 67.4633 62.2045 67.4938L62.3689 68.4802L62.5333 69.4666C62.6237 69.4515 62.6968 69.446 62.7547 69.446V68.446ZM62.3689 68.4802L62.2045 67.4938C61.9374 67.5383 61.6879 67.6336 61.4605 67.7712L61.9783 68.6267L62.4961 69.4822C62.5161 69.4701 62.527 69.4677 62.5333 69.4666L62.3689 68.4802ZM61.9783 68.6267L61.4672 67.7672C61.1572 67.9515 60.9402 68.2158 60.7939 68.4962L61.6805 68.9587L62.5671 69.4213C62.5726 69.4106 62.571 69.4166 62.5579 69.4312C62.5441 69.4466 62.5214 69.4672 62.4894 69.4862L61.9783 68.6267ZM61.6805 68.9587L60.7981 68.4881C60.6133 68.8347 60.5633 69.2164 60.5633 69.5544H61.5633H62.5633C62.5633 69.4792 62.5693 69.4333 62.5738 69.4105C62.5783 69.3877 62.5791 69.3988 62.5628 69.4293L61.6805 68.9587ZM61.5633 69.5544H60.5633V72.2742H61.5633H62.5633V69.5544H61.5633ZM61.5633 72.2742V71.2742H59.6541V72.2742V73.2742H61.5633V72.2742ZM59.6541 72.2742H60.6541V66.7419H59.6541H58.6541V72.2742H59.6541ZM59.6541 66.7419V67.7419H61.075V66.7419V65.7419H59.6541V66.7419ZM61.075 66.7419L60.1274 67.0613L60.4252 67.9451L61.3729 67.6257L62.3205 67.3063L62.0226 66.4226L61.075 66.7419ZM61.3729 67.6257V68.6257H61.4656V67.6257V66.6257H61.3729V67.6257ZM61.4656 67.6257L62.3405 68.11C62.3895 68.0215 62.453 67.9393 62.5353 67.8621L61.8514 67.1325L61.1674 66.403C60.9373 66.6188 60.7435 66.8654 60.5907 67.1414L61.4656 67.6257ZM61.8514 67.1325L62.5358 67.8616C62.6164 67.7859 62.7017 67.7296 62.794 67.688L62.3836 66.7761L61.9732 65.8642C61.6749 65.9984 61.4053 66.1797 61.1669 66.4035L61.8514 67.1325ZM62.3836 66.7761L62.7883 67.6905C62.8649 67.6566 62.9309 67.6443 62.9939 67.6443V66.6443V65.6443C62.6403 65.6443 62.2994 65.7198 61.9788 65.8617L62.3836 66.7761ZM67.7332 66.9275L67.298 67.8278L67.3041 67.8307L67.7332 66.9275ZM68.9539 70.0232V71.0232H69.9539V70.0232H68.9539ZM65.5408 70.0232V69.0232H64.4831L64.5424 70.0793L65.5408 70.0232ZM65.8631 70.7361L65.1803 71.4667L65.1863 71.4722L65.8631 70.7361ZM67.699 70.9118L67.4694 69.9386L67.4669 69.9392L67.699 70.9118ZM68.5926 70.5945H69.5926V69.0222L68.1686 69.6888L68.5926 70.5945ZM68.5926 71.9665L69.057 72.8522L69.5926 72.5713V71.9665H68.5926ZM63.9881 71.1511L63.1312 71.6666L63.1341 71.6715L63.9881 71.1511ZM63.9539 67.9089L64.8359 68.3802L64.8374 68.3774L63.9539 67.9089ZM64.9109 66.9568L65.3582 67.8512L65.3638 67.8483L64.9109 66.9568ZM65.8436 68.1579L66.5264 68.8885L66.527 68.888L65.8436 68.1579ZM65.5799 68.822L64.5836 68.7363L64.4902 69.822H65.5799V68.822ZM67.2205 68.822V69.822H68.2407L68.2203 68.802L67.2205 68.822ZM66.8494 68.0603L66.2947 68.8924L66.3052 68.8992L66.8494 68.0603ZM66.3416 66.6443V67.6443C66.7631 67.6443 67.0715 67.7183 67.298 67.8278L67.7332 66.9275L68.1684 66.0271C67.6137 65.759 66.9944 65.6443 66.3416 65.6443V66.6443ZM67.7332 66.9275L67.3041 67.8307C67.5099 67.9285 67.6563 68.0654 67.766 68.2594L68.6365 67.7673L69.5071 67.2753C69.1936 66.7206 68.7377 66.2976 68.1623 66.0242L67.7332 66.9275ZM68.6365 67.7673L67.766 68.2594C67.8704 68.4441 67.9539 68.731 67.9539 69.1736H68.9539H69.9539C69.9539 68.4898 69.8258 67.8392 69.5071 67.2753L68.6365 67.7673ZM68.9539 69.1736H67.9539V70.0232H68.9539H69.9539V69.1736H68.9539ZM68.9539 70.0232V69.0232H65.5408V70.0232V71.0232H68.9539V70.0232ZM65.5408 70.0232L64.5424 70.0793C64.572 70.6069 64.78 71.0927 65.1803 71.4667L65.8631 70.7361L66.5458 70.0054C66.5414 70.0012 66.5406 69.9998 66.5416 70.0012C66.5427 70.0027 66.5439 70.0048 66.5448 70.0068C66.5456 70.0086 66.5449 70.0076 66.5437 70.0023C66.5424 69.9969 66.5403 69.9856 66.5392 69.9671L65.5408 70.0232ZM65.8631 70.7361L65.1863 71.4722C65.6382 71.8877 66.2165 72.0144 66.7518 72.0144V71.0144V70.0144C66.5058 70.0144 66.4916 69.9556 66.5399 69.9999L65.8631 70.7361ZM66.7518 71.0144V72.0144C67.162 72.0144 67.557 71.9738 67.9311 71.8845L67.699 70.9118L67.4669 69.9392C67.2682 69.9866 67.0316 70.0144 66.7518 70.0144V71.0144ZM67.699 70.9118L67.9287 71.8851C68.2936 71.799 68.6564 71.6687 69.0165 71.5002L68.5926 70.5945L68.1686 69.6888C67.9167 69.8067 67.6839 69.888 67.4694 69.9386L67.699 70.9118ZM68.5926 70.5945H67.5926V71.9665H68.5926H69.5926V70.5945H68.5926ZM68.5926 71.9665L68.1282 71.0809C67.9495 71.1746 67.7473 71.2472 67.5166 71.2948L67.7186 72.2742L67.9205 73.2535C68.3213 73.1709 68.7018 73.0384 69.057 72.8522L68.5926 71.9665ZM67.7186 72.2742L67.5166 71.2948C67.2912 71.3412 66.966 71.3718 66.5223 71.3718V72.3718V73.3718C67.0421 73.3718 67.5144 73.3373 67.9205 73.2535L67.7186 72.2742ZM66.5223 72.3718V71.3718C66.0858 71.3718 65.7315 71.2944 65.4399 71.1627L65.0281 72.074L64.6164 72.9852C65.2037 73.2506 65.8454 73.3718 66.5223 73.3718V72.3718ZM65.0281 72.074L65.4399 71.1627C65.1861 71.048 64.9925 70.8777 64.842 70.6307L63.9881 71.1511L63.1341 71.6715C63.4914 72.2578 63.9912 72.7028 64.6164 72.9852L65.0281 72.074ZM63.9881 71.1511L64.845 70.6356C64.715 70.4195 64.6121 70.078 64.6121 69.5447H63.6121H62.6121C62.6121 70.3199 62.7599 71.0494 63.1312 71.6666L63.9881 71.1511ZM63.6121 69.5447H64.6121C64.6121 68.9866 64.709 68.6177 64.8359 68.3802L63.9539 67.9089L63.0719 67.4376C62.7431 68.053 62.6121 68.7746 62.6121 69.5447H63.6121ZM63.9539 67.9089L64.8374 68.3774C64.974 68.1198 65.1458 67.9574 65.3582 67.8512L64.9109 66.9568L64.4637 66.0623C63.8557 66.3663 63.3896 66.8386 63.0704 67.4404L63.9539 67.9089ZM64.9109 66.9568L65.3638 67.8483C65.6103 67.7231 65.9269 67.6443 66.3416 67.6443V66.6443V65.6443C65.6691 65.6443 65.0319 65.7737 64.4581 66.0652L64.9109 66.9568ZM66.41 67.9431V66.9431C65.9515 66.9431 65.5125 67.0981 65.1601 67.4279L65.8436 68.1579L66.527 68.888C66.512 68.902 66.4867 68.9196 66.4546 68.9318C66.4236 68.9435 66.4053 68.9431 66.41 68.9431V67.9431ZM65.8436 68.1579L65.1607 67.4274C64.7602 67.8017 64.6208 68.3034 64.5836 68.7363L65.5799 68.822L66.5762 68.9077C66.5795 68.8691 66.5841 68.8413 66.5882 68.8226C66.5922 68.804 66.5953 68.7966 66.5947 68.798C66.5941 68.7995 66.5896 68.8106 66.5784 68.8277C66.5669 68.845 66.55 68.8665 66.5264 68.8885L65.8436 68.1579ZM65.5799 68.822V69.822H67.2205V68.822V67.822H65.5799V68.822ZM67.2205 68.822L68.2203 68.802C68.2146 68.5156 68.1562 68.2291 68.0302 67.9572L67.1229 68.3777L66.2155 68.7981C66.215 68.797 66.2158 68.7982 66.217 68.8035C66.2182 68.8091 66.2203 68.8213 66.2207 68.842L67.2205 68.822ZM67.1229 68.3777L68.0302 67.9572C67.8912 67.6573 67.6761 67.4046 67.3936 67.2213L66.8494 68.0603L66.3052 68.8992C66.2881 68.8881 66.2686 68.8719 66.2505 68.8509C66.2325 68.8301 66.2215 68.8109 66.2155 68.7981L67.1229 68.3777ZM66.8494 68.0603L67.4041 67.2282C67.0861 67.0162 66.7341 66.9431 66.41 66.9431V67.9431V68.9431C66.4244 68.9431 66.4169 68.9447 66.394 68.9386C66.3696 68.9321 66.3338 68.9184 66.2947 68.8923L66.8494 68.0603ZM76.8115 66.7419H77.8115V65.7419H76.8115V66.7419ZM76.8115 72.2742V73.2742H77.8115V72.2742H76.8115ZM75.3711 72.2742L74.4265 72.6024L74.66 73.2742H75.3711V72.2742ZM75.1318 71.5857L76.0764 71.2574L75.843 70.5857H75.1318V71.5857ZM75.0195 71.5857V70.5857H74.4601L74.1674 71.0624L75.0195 71.5857ZM74.585 72.0398L75.136 72.8742L75.1397 72.8718L74.585 72.0398ZM74.0088 72.2888L73.7698 71.3178L73.7628 71.3195L73.7558 71.3213L74.0088 72.2888ZM72.3682 72.1618L71.9331 73.0623L71.9371 73.0641L72.3682 72.1618ZM71.6748 71.5027L70.8042 71.9947L70.8083 72.0018L71.6748 71.5027ZM71.4209 66.7419V65.7419H70.4209V66.7419H71.4209ZM73.3301 66.7419H74.3301V65.7419H73.3301V66.7419ZM73.4814 70.5847L72.5995 71.0561L72.6044 71.0652L72.6095 71.0742L73.4814 70.5847ZM74.5459 70.6677L73.8475 69.9519L73.8388 69.9606L74.5459 70.6677ZM74.9023 66.7419V65.7419H73.9023V66.7419H74.9023ZM76.8115 66.7419H75.8115V72.2742H76.8115H77.8115V66.7419H76.8115ZM76.8115 72.2742V71.2742H75.3711V72.2742V73.2742H76.8115V72.2742ZM75.3711 72.2742L76.3157 71.9459L76.0764 71.2574L75.1318 71.5857L74.1872 71.9139L74.4265 72.6024L75.3711 72.2742ZM75.1318 71.5857V70.5857H75.0195V71.5857V72.5857H75.1318V71.5857ZM75.0195 71.5857L74.1674 71.0624C74.1267 71.1286 74.082 71.1732 74.0303 71.2077L74.585 72.0398L75.1397 72.8718C75.4395 72.6719 75.6845 72.4138 75.8717 72.1089L75.0195 71.5857ZM74.585 72.0398L74.0339 71.2053C73.9619 71.2529 73.8763 71.2916 73.7698 71.3178L74.0088 72.2888L74.2478 73.2598C74.5644 73.1819 74.863 73.0545 75.136 72.8742L74.585 72.0398ZM74.0088 72.2888L73.7558 71.3213C73.6302 71.3542 73.4957 71.3718 73.3496 71.3718V72.3718V73.3718C73.6593 73.3718 73.9642 73.3341 74.2618 73.2563L74.0088 72.2888ZM73.3496 72.3718V71.3718C73.1205 71.3718 72.9431 71.3283 72.7993 71.2595L72.3682 72.1618L71.9371 73.0641C72.3792 73.2754 72.8561 73.3718 73.3496 73.3718V72.3718ZM72.3682 72.1618L72.8032 71.2614C72.7079 71.2154 72.6214 71.1425 72.5413 71.0035L71.6748 71.5027L70.8083 72.0018C71.0733 72.4618 71.449 72.8283 71.9331 73.0623L72.3682 72.1618ZM71.6748 71.5027L72.5454 71.0106C72.4867 70.9068 72.4209 70.7063 72.4209 70.3454H71.4209H70.4209C70.4209 70.9286 70.5243 71.4995 70.8042 71.9947L71.6748 71.5027ZM71.4209 70.3454H72.4209V66.7419H71.4209H70.4209V70.3454H71.4209ZM71.4209 66.7419V67.7419H73.3301V66.7419V65.7419H71.4209V66.7419ZM73.3301 66.7419H72.3301V69.7644H73.3301H74.3301V66.7419H73.3301ZM73.3301 69.7644H72.3301C72.3301 70.1896 72.3855 70.6556 72.5995 71.0561L73.4814 70.5847L74.3634 70.1133C74.3735 70.1322 74.3631 70.1205 74.3513 70.0566C74.3398 69.9939 74.3301 69.8989 74.3301 69.7644H73.3301ZM73.4814 70.5847L72.6095 71.0742C72.9115 71.6122 73.438 71.863 73.9893 71.863V70.863V69.863C74.0043 69.863 74.076 69.8666 74.1671 69.9165C74.2632 69.9692 74.3236 70.042 74.3534 70.0952L73.4814 70.5847ZM73.9893 70.863V71.863C74.4104 71.863 74.8827 71.7451 75.253 71.3748L74.5459 70.6677L73.8388 69.9606C73.8868 69.9126 73.9391 69.8842 73.978 69.8706C74.0125 69.8585 74.0214 69.863 73.9893 69.863V70.863ZM74.5459 70.6677L75.2442 71.3835C75.5667 71.0689 75.7267 70.6684 75.8038 70.2925L74.8242 70.0915L73.8446 69.8906C73.8318 69.9533 73.8188 69.9834 73.8151 69.991C73.8121 69.9973 73.8201 69.9787 73.8476 69.9519L74.5459 70.6677ZM74.8242 70.0915L75.8038 70.2925C75.8737 69.9518 75.9023 69.571 75.9023 69.1638H74.9023H73.9023C73.9023 69.4858 73.8789 69.7234 73.8446 69.8906L74.8242 70.0915ZM74.9023 69.1638H75.9023V66.7419H74.9023H73.9023V69.1638H74.9023ZM74.9023 66.7419V67.7419H76.8115V66.7419V65.7419H74.9023V66.7419ZM81.2969 66.6687L81.1555 67.6586L81.1694 67.6606L81.1833 67.6622L81.2969 66.6687ZM81.5508 66.7029L82.5463 66.7973L82.6335 65.8785L81.7246 65.7181L81.5508 66.7029ZM81.3799 68.5046L81.1254 69.4717L82.2642 69.7714L82.3754 68.599L81.3799 68.5046ZM81.1406 68.4656L81.0085 69.4568L81.0248 69.459L81.0411 69.4606L81.1406 68.4656ZM79.9541 68.6267L80.4652 69.4863L80.4719 69.4822L79.9541 68.6267ZM79.6562 68.9587L80.5386 69.4293L80.5428 69.4213L79.6562 68.9587ZM79.5391 72.2742V73.2742H80.5391V72.2742H79.5391ZM77.6299 72.2742H76.6299V73.2742H77.6299V72.2742ZM77.6299 66.7419V65.7419H76.6299V66.7419H77.6299ZM79.0508 66.7419L79.9984 66.4226L79.769 65.7419H79.0508V66.7419ZM79.3486 67.6257L78.401 67.9451L78.6304 68.6257H79.3486V67.6257ZM79.4414 67.6257V68.6257H80.0308L80.3163 68.11L79.4414 67.6257ZM79.8271 67.1325L80.5111 67.8621L80.5116 67.8616L79.8271 67.1325ZM80.3594 66.7761L79.9546 65.8617L79.949 65.8642L80.3594 66.7761ZM80.9697 66.6443V67.6443C81.022 67.6443 81.0836 67.6484 81.1555 67.6586L81.2969 66.6687L81.4383 65.6787C81.2823 65.6565 81.1258 65.6443 80.9697 65.6443V66.6443ZM81.2969 66.6687L81.1833 67.6622C81.2933 67.6748 81.353 67.6834 81.377 67.6876L81.5508 66.7029L81.7246 65.7181C81.6379 65.7028 81.5283 65.6886 81.4104 65.6751L81.2969 66.6687ZM81.5508 66.7029L80.5553 66.6084L80.3844 68.4102L81.3799 68.5046L82.3754 68.599L82.5463 66.7973L81.5508 66.7029ZM81.3799 68.5046L81.6344 67.5375C81.5024 67.5028 81.3656 67.4831 81.2401 67.4705L81.1406 68.4656L81.0411 69.4606C81.0735 69.4638 81.0969 69.467 81.1125 69.4696C81.1288 69.4722 81.132 69.4734 81.1254 69.4717L81.3799 68.5046ZM81.1406 68.4656L81.2728 67.4743C81.11 67.4526 80.922 67.446 80.7305 67.446V68.446V69.446C80.8905 69.446 80.9759 69.4524 81.0085 69.4568L81.1406 68.4656ZM80.7305 68.446V67.446C80.5475 67.446 80.3634 67.4633 80.1803 67.4938L80.3447 68.4802L80.5091 69.4666C80.5994 69.4515 80.6726 69.446 80.7305 69.446V68.446ZM80.3447 68.4802L80.1803 67.4938C79.9132 67.5383 79.6637 67.6336 79.4363 67.7712L79.9541 68.6267L80.4719 69.4822C80.4919 69.4701 80.5028 69.4677 80.5091 69.4666L80.3447 68.4802ZM79.9541 68.6267L79.443 67.7672C79.133 67.9515 78.9159 68.2158 78.7697 68.4962L79.6562 68.9587L80.5428 69.4213C80.5484 69.4106 80.5468 69.4166 80.5337 69.4312C80.5199 69.4466 80.4972 69.4672 80.4652 69.4862L79.9541 68.6267ZM79.6562 68.9587L78.7739 68.4881C78.5891 68.8347 78.5391 69.2164 78.5391 69.5544H79.5391H80.5391C80.5391 69.4792 80.5451 69.4333 80.5496 69.4105C80.554 69.3877 80.5549 69.3988 80.5386 69.4293L79.6562 68.9587ZM79.5391 69.5544H78.5391V72.2742H79.5391H80.5391V69.5544H79.5391ZM79.5391 72.2742V71.2742H77.6299V72.2742V73.2742H79.5391V72.2742ZM77.6299 72.2742H78.6299V66.7419H77.6299H76.6299V72.2742H77.6299ZM77.6299 66.7419V67.7419H79.0508V66.7419V65.7419H77.6299V66.7419ZM79.0508 66.7419L78.1031 67.0613L78.401 67.9451L79.3486 67.6257L80.2963 67.3063L79.9984 66.4226L79.0508 66.7419ZM79.3486 67.6257V68.6257H79.4414V67.6257V66.6257H79.3486V67.6257ZM79.4414 67.6257L80.3163 68.11C80.3653 68.0215 80.4287 67.9393 80.5111 67.8621L79.8271 67.1325L79.1432 66.403C78.9131 66.6188 78.7193 66.8654 78.5665 67.1414L79.4414 67.6257ZM79.8271 67.1325L80.5116 67.8616C80.5922 67.7859 80.6774 67.7296 80.7697 67.688L80.3594 66.7761L79.949 65.8642C79.6507 65.9984 79.3811 66.1797 79.1427 66.4035L79.8271 67.1325ZM80.3594 66.7761L80.7641 67.6905C80.8407 67.6566 80.9067 67.6443 80.9697 67.6443V66.6443V65.6443C80.6161 65.6443 80.2752 65.7198 79.9546 65.8617L80.3594 66.7761ZM83.7363 72.2742V73.2742H84.7363V72.2742H83.7363ZM81.8271 72.2742H80.8271V73.2742H81.8271V72.2742ZM81.8271 64.6765V63.6765H80.8271V64.6765H81.8271ZM83.7363 64.6765H84.7363V63.6765H83.7363V64.6765ZM83.7363 72.2742V71.2742H81.8271V72.2742V73.2742H83.7363V72.2742ZM81.8271 72.2742H82.8271V64.6765H81.8271H80.8271V72.2742H81.8271ZM81.8271 64.6765V65.6765H83.7363V64.6765V63.6765H81.8271V64.6765ZM83.7363 64.6765H82.7363V72.2742H83.7363H84.7363V64.6765H83.7363Z" fill="#C3E4FF" mask="url(#path-6-outside-1_1_2)"/>
</g>
</svg>
